<?xml version="1.0" standalone="no"?>
<!DOCTYPE svg PUBLIC "-//W3C//DTD SVG 20010904//EN"
 "http://www.w3.org/TR/2001/REC-SVG-20010904/DTD/svg10.dtd">
<svg version="1.0" xmlns="http://www.w3.org/2000/svg"
 width="3376.000000pt" height="3376.000000pt" viewBox="0 0 3376.000000 3376.000000"
 preserveAspectRatio="xMidYMid meet">
<metadata>
Created by potrace 1.14, written by Peter Selinger 2001-2017
</metadata>
<g transform="translate(0.000000,3376.000000) scale(0.100000,-0.100000)"
fill="#000000" stroke="none">
<path d="M1300 19247 c-30 -17 -135 -77 -233 -134 -98 -57 -183 -103 -188
-103 -5 0 -9 -4 -9 -10 0 -5 -4 -10 -9 -10 -5 0 -44 -20 -85 -45 -42 -25 -81
-45 -85 -45 -5 0 -11 -3 -13 -7 -2 -5 -16 -15 -33 -24 -16 -9 -86 -49 -155
-89 -119 -69 -190 -110 -235 -134 -11 -6 -22 -13 -25 -16 -3 -3 -16 -11 -30
-18 -39 -20 -66 -37 -84 -51 -9 -7 -16 -11 -16 -8 0 4 -15 -4 -34 -16 -18 -12
-41 -26 -49 -32 -14 -9 -8 -24 43 -112 33 -57 60 -107 60 -113 0 -5 4 -10 8
-10 4 0 13 -12 20 -27 7 -16 18 -37 25 -48 37 -60 87 -147 87 -152 0 -4 6 -14
14 -22 7 -9 27 -41 43 -71 17 -30 53 -95 82 -143 28 -49 51 -93 51 -98 0 -5 5
-9 10 -9 6 0 10 -4 10 -9 0 -5 27 -55 60 -111 33 -56 60 -104 60 -106 0 -3 16
-30 36 -61 19 -31 40 -65 45 -77 6 -12 23 -43 39 -71 17 -27 38 -65 47 -82 9
-18 22 -33 29 -33 6 0 137 73 290 161 154 89 295 170 314 181 44 25 189 110
212 123 9 6 56 33 104 60 48 28 113 65 143 82 31 18 74 43 96 55 22 12 47 27
57 33 9 5 43 25 77 44 l60 33 -26 47 c-15 25 -53 90 -85 144 -32 55 -58 102
-58 107 0 4 -7 13 -15 20 -9 7 -13 15 -11 18 3 3 -3 17 -13 31 -31 43 -131
220 -131 231 0 5 -4 10 -8 10 -4 0 -13 12 -20 28 -6 15 -20 41 -30 57 -19 30
-104 175 -147 250 -12 22 -45 80 -74 128 -28 49 -51 93 -51 98 0 5 -4 9 -10 9
-5 0 -10 4 -10 10 0 5 -18 39 -40 75 -22 36 -40 70 -40 75 0 20 -18 17 -70
-13z"/>
<path d="M2933 18962 l-32 -3 0 -799 c-1 -477 3 -801 8 -805 5 -3 12 -2 15 3
3 5 20 7 38 5 18 -2 92 -3 163 -3 72 0 144 1 160 0 73 0 165 0 172 1 4 1 10 1
13 -1 12 -4 80 -5 80 0 0 3 24 4 52 2 87 -5 168 -3 178 3 6 3 10 2 10 -3 0 -6
14 -7 34 -2 19 4 37 5 40 2 3 -3 59 -4 123 -3 65 1 125 2 133 2 8 -1 62 -1
120 0 58 0 112 0 120 0 54 -3 133 -1 137 2 5 5 5 1588 0 1593 -6 6 -127 9
-127 4 0 -4 -106 -4 -120 0 -3 1 -39 1 -80 0 -101 -2 -93 -2 -193 2 -48 2 -87
1 -87 -2 0 -3 -17 -4 -37 -3 -21 2 -74 3 -118 3 -95 -1 -87 -1 -150 0 -27 1
-54 1 -60 0 -5 -1 -14 -1 -20 0 -5 1 -46 1 -90 1 -44 -1 -84 -2 -90 -2 -25 1
-182 0 -200 -1 -11 0 -37 2 -57 4 -21 3 -38 2 -38 -2 0 -4 -15 -5 -32 -1 -18
3 -47 5 -65 3z"/>
<path d="M19438 18777 c-15 -6 -35 -27 -47 -51 -18 -38 -20 -59 -19 -256 0
-311 0 -311 236 -311 67 0 127 3 132 6 6 3 10 3 10 -2 0 -4 21 -7 47 -5 27 2
55 3 63 3 50 -2 148 -1 162 2 30 5 75 45 85 74 5 15 9 128 9 251 l-1 224 -42
39 -42 39 -283 -1 c-170 -1 -294 -5 -310 -12z"/>
<path d="M21031 18673 c-61 -30 -61 -31 -64 -485 l-2 -413 -205 0 c-219 -1
-233 -4 -266 -52 -17 -25 -19 -50 -20 -213 -2 -211 4 -247 50 -278 31 -21 42
-22 239 -22 l206 0 0 -547 c0 -566 2 -627 28 -753 16 -79 70 -233 85 -238 4
-2 8 -10 8 -18 0 -8 5 -14 10 -14 6 0 10 -6 10 -14 0 -22 118 -143 184 -190
63 -44 131 -76 220 -104 63 -19 64 -20 181 -38 82 -14 427 -20 445 -9 6 3 10
3 10 -2 0 -4 30 -7 67 -5 38 1 84 3 103 3 42 -1 93 33 107 69 6 16 10 116 9
236 -1 233 -7 253 -69 273 -18 6 -128 11 -246 12 -232 2 -264 7 -326 49 -90
62 -124 203 -115 470 2 51 0 268 -4 363 -1 32 2 61 6 63 5 3 5 10 2 16 -9 14
-9 262 0 276 4 7 3 12 -1 12 -5 0 -8 12 -7 28 1 15 3 35 3 45 1 16 23 17 314
17 335 0 343 1 380 52 19 25 21 43 21 229 1 301 26 283 -391 284 -171 0 -315
4 -319 8 -7 6 -8 50 -5 167 1 30 0 74 -2 98 -2 23 0 45 5 48 4 3 5 10 2 16 -9
14 -9 262 0 276 4 7 3 12 -1 12 -9 0 -8 73 1 96 2 6 2 14 -1 17 -3 3 -6 27 -8
54 -3 60 -9 73 -43 98 -25 19 -44 20 -298 22 -227 1 -276 -1 -303 -14z"/>
<path d="M25842 18673 c-66 -32 -61 85 -62 -1686 0 -902 4 -1616 9 -1629 20
-53 47 -70 113 -75 35 -2 71 -5 80 -7 9 -2 19 1 22 8 2 6 5 7 5 1 1 -10 109
-13 127 -3 5 2 20 3 34 1 42 -6 160 -4 170 2 6 4 10 2 10 -4 0 -6 11 -6 30 -1
17 5 31 8 33 8 14 -5 47 19 62 44 19 32 20 62 20 1662 l0 1628 -37 33 -38 32
-274 0 c-222 1 -279 -2 -304 -14z"/>
<path d="M6119 18631 c-71 -38 -72 -43 -73 -308 -2 -259 3 -294 48 -328 27
-19 41 -20 464 -22 240 -1 446 -2 457 -2 20 -1 20 -8 20 -1305 l0 -1305 21
-28 c21 -28 87 -67 92 -54 1 3 31 4 67 1 40 -3 67 -2 69 5 3 6 5 6 5 0 1 -10
109 -13 127 -3 5 2 20 3 34 1 27 -3 157 -5 230 -2 52 1 102 28 117 62 8 17 11
413 11 1321 0 714 3 1300 6 1303 3 4 205 6 448 6 468 0 470 0 513 47 19 21 20
37 21 282 0 204 -2 263 -13 273 -7 8 -13 17 -13 22 0 14 -37 33 -77 40 -39 6
-45 6 -128 4 -27 0 -57 -1 -65 0 -8 0 -45 0 -82 -1 -37 -1 -71 1 -77 4 -5 4
-12 2 -16 -4 -4 -6 -11 -8 -16 -4 -6 3 -49 5 -97 4 -48 0 -96 -1 -107 0 -29 2
-32 2 -135 1 -210 -1 -253 -1 -287 1 -16 0 -50 0 -78 -1 -27 0 -57 -1 -65 0
-8 0 -45 0 -82 -1 -37 -1 -71 1 -77 4 -5 4 -12 2 -16 -4 -4 -6 -11 -8 -16 -4
-6 3 -49 5 -97 4 -48 0 -96 -1 -107 0 -29 2 -32 2 -135 1 -210 -1 -253 -1
-287 1 -16 0 -50 0 -78 -1 -27 0 -59 -1 -70 -1 -31 1 -139 1 -152 1 -28 -2
-46 -2 -129 0 -47 0 -88 -2 -91 -4 -3 -3 -15 -2 -28 3 -16 6 -32 3 -56 -9z"/>
<path d="M23059 18646 c-2 -2 -20 -5 -39 -7 -45 -4 -77 -25 -96 -61 -14 -26
-15 -217 -15 -1623 0 -1489 1 -1595 17 -1620 9 -14 26 -31 38 -38 28 -15 155
-25 160 -12 3 7 5 7 5 0 1 -10 109 -13 127 -3 9 4 20 4 82 -5 18 -2 35 -1 38
4 2 4 11 6 18 3 20 -8 106 -10 106 -3 0 3 16 4 35 2 40 -4 83 17 106 51 12 17
14 115 16 571 1 303 2 568 2 591 l1 41 725 0 c794 0 751 -3 792 59 14 22 17
57 17 265 0 225 -2 241 -21 267 -40 55 -16 53 -793 53 -674 0 -720 1 -721 17
0 9 -1 190 -2 401 -2 284 1 385 10 388 6 2 357 5 780 6 751 2 769 2 795 22 15
11 32 33 38 49 6 17 10 123 10 253 0 188 -3 231 -16 259 -20 41 -65 68 -105
62 -16 -3 -29 -2 -29 2 0 4 -21 4 -47 0 -27 -3 -65 -3 -86 1 -21 3 -40 2 -43
-3 -3 -4 -10 -6 -15 -2 -6 3 -49 5 -97 4 -48 0 -96 -1 -107 0 -29 2 -32 2
-135 1 -210 -1 -253 -1 -287 1 -16 0 -50 0 -78 -1 -27 0 -57 -1 -65 0 -8 0
-45 0 -82 -1 -37 -1 -71 1 -77 4 -5 4 -12 2 -16 -4 -4 -6 -11 -8 -16 -4 -6 3
-49 5 -97 4 -48 0 -96 -1 -107 0 -29 2 -32 2 -135 1 -210 -1 -253 -1 -287 1
-16 0 -50 0 -78 -1 -27 0 -59 -1 -70 -1 -11 1 -46 0 -78 0 -31 -1 -61 1 -66 4
-4 3 -10 4 -12 2z"/>
<path d="M11977 17824 c-1 -1 -44 -4 -94 -8 -134 -9 -345 -55 -359 -77 -3 -5
-12 -9 -21 -9 -24 0 -148 -66 -223 -118 -75 -52 -200 -171 -200 -190 0 -7 -4
-10 -10 -7 -5 3 -10 1 -10 -5 0 -6 -11 -27 -23 -48 -33 -51 -66 -143 -68 -189
-6 -109 19 -118 321 -117 129 1 247 2 262 3 29 1 98 54 98 75 0 22 97 121 151
153 30 18 72 35 94 39 22 3 44 8 48 11 15 9 242 3 242 -7 0 -1 10 -3 23 -6 89
-16 186 -117 206 -214 3 -14 7 -36 10 -50 12 -54 10 -181 -3 -190 -8 -4 -43
-11 -80 -15 -36 -4 -73 -8 -81 -10 -8 -1 -67 -10 -130 -19 -141 -21 -168 -25
-200 -30 -14 -3 -61 -10 -105 -17 -111 -16 -115 -17 -159 -28 -22 -5 -43 -8
-47 -5 -4 2 -10 0 -13 -5 -3 -5 -23 -12 -43 -16 -55 -9 -206 -62 -282 -98 -78
-36 -225 -125 -229 -138 -2 -5 -7 -9 -11 -9 -13 0 -85 -73 -122 -125 -82 -115
-116 -229 -114 -385 1 -98 18 -203 37 -224 4 -6 8 -18 8 -28 0 -10 5 -18 10
-18 6 0 10 -6 10 -14 0 -21 74 -124 134 -187 31 -31 88 -79 127 -105 77 -51
221 -117 279 -128 19 -3 46 -9 60 -12 109 -24 376 -23 480 1 14 4 30 7 35 9
91 22 220 80 300 136 47 33 133 115 157 150 l17 25 1 -35 c1 -19 2 -63 1 -97
-1 -90 28 -147 80 -157 13 -3 25 -5 27 -6 6 -3 121 -2 129 2 4 2 19 3 33 1 66
-8 345 -3 369 7 14 6 35 25 47 43 21 32 21 35 19 857 -1 454 -5 839 -9 855 -3
17 -9 46 -12 65 -7 43 -51 175 -70 212 -8 15 -14 29 -12 30 1 2 -20 35 -47 73
-74 107 -185 208 -280 255 -16 8 -33 19 -37 25 -4 5 -8 7 -8 2 0 -4 -12 -1
-27 6 -33 17 -142 56 -175 63 -132 28 -156 31 -253 40 -70 6 -253 12 -258 8z
m466 -1453 c-6 -205 -38 -325 -114 -431 -38 -53 -109 -120 -126 -120 -7 0 -13
-3 -13 -8 0 -13 -101 -53 -175 -69 -41 -9 -182 -9 -230 -1 -133 23 -251 109
-276 200 -28 105 -4 188 75 263 64 60 192 117 316 141 8 2 31 6 50 10 19 4 42
8 50 9 8 1 33 5 55 10 22 4 49 9 60 10 20 2 84 12 121 19 12 2 43 7 70 11 27
3 65 10 84 14 19 4 40 7 45 7 6 1 9 -27 8 -65z"/>
<path d="M15167 17823 c-1 0 -31 -4 -67 -8 -86 -10 -104 -13 -107 -15 -3 -3
-3 -3 -53 -14 -139 -33 -313 -137 -432 -259 -27 -27 -49 -47 -49 -45 -1 1 -3
50 -4 108 -1 79 -6 112 -18 131 -34 51 -49 54 -337 54 -292 0 -302 -2 -335
-57 -17 -29 -18 -89 -17 -1194 1 -1080 2 -1164 18 -1189 26 -39 68 -58 129
-55 17 1 35 1 40 1 130 -3 197 -3 201 1 2 3 19 3 37 1 50 -6 167 -9 167 -3 0
3 15 5 32 4 42 -1 68 11 93 44 20 26 20 43 21 722 1 382 4 724 8 759 24 224
174 395 376 428 50 8 189 8 230 0 108 -23 187 -70 247 -148 60 -79 82 -130
108 -264 3 -16 6 -349 6 -739 1 -390 4 -719 9 -730 20 -53 48 -70 118 -74 98
-5 302 -3 313 4 5 3 9 2 9 -3 0 -9 150 -8 208 2 32 5 46 15 67 44 l26 38 -4
784 c-1 431 -6 795 -10 809 -4 13 -9 42 -12 65 -19 132 -86 297 -170 419 -45
66 -175 206 -175 189 0 -4 -4 -3 -8 2 -20 30 -154 104 -238 133 -52 18 -76 24
-144 39 -56 12 -275 24 -283 16z"/>
<path d="M17677 17824 c-1 -1 -38 -5 -82 -8 -90 -7 -132 -13 -190 -27 -58 -14
-179 -53 -185 -59 -3 -3 -43 -24 -90 -47 -87 -44 -104 -55 -201 -140 -85 -74
-168 -208 -202 -328 -17 -59 -20 -240 -5 -268 6 -12 6 -17 0 -13 -12 7 25
-123 40 -141 6 -7 7 -13 4 -13 -20 0 79 -138 139 -193 76 -71 273 -177 386
-207 24 -7 49 -15 54 -18 6 -4 17 -7 25 -9 8 -1 31 -6 50 -12 49 -15 200 -51
230 -56 14 -2 62 -13 105 -24 308 -79 409 -150 408 -291 0 -65 -5 -100 -13
-100 -3 0 -14 -13 -23 -30 -16 -26 -107 -100 -107 -86 0 3 -15 -1 -34 -9 -51
-22 -83 -27 -184 -29 -55 -2 -119 3 -155 11 -59 14 -156 53 -180 73 -104 87
-225 170 -246 170 -183 4 -484 -2 -502 -9 -64 -24 -88 -97 -59 -174 16 -41 34
-81 40 -87 3 -3 11 -17 19 -32 22 -43 189 -208 210 -208 4 0 16 -8 27 -18 28
-26 198 -107 288 -137 158 -53 280 -68 541 -68 242 0 405 21 565 74 170 55
360 180 435 283 11 16 25 33 30 40 6 6 19 29 30 51 11 22 23 42 26 45 3 3 16
43 29 90 29 105 32 254 6 345 -31 110 -93 221 -165 295 -81 82 -250 187 -356
220 -22 7 -44 15 -50 19 -5 3 -14 6 -20 8 -15 3 -45 10 -105 26 -48 13 -84 21
-150 33 -18 3 -81 16 -95 19 -5 2 -26 5 -45 9 -106 17 -326 86 -380 118 -72
44 -120 114 -120 178 0 124 89 221 225 245 44 8 178 8 213 0 12 -3 32 -7 44
-10 32 -7 121 -52 149 -75 13 -11 29 -23 34 -28 6 -4 26 -19 45 -32 19 -14 37
-27 40 -30 3 -3 23 -17 46 -33 l40 -27 241 0 c133 0 253 4 267 10 49 18 73 84
54 144 -50 160 -210 324 -415 425 -99 49 -258 104 -343 117 -14 2 -36 7 -49
10 -43 9 -326 25 -334 18z"/>
<path d="M28157 17824 c-1 -1 -36 -4 -77 -7 -41 -4 -84 -8 -95 -11 -11 -2 -42
-7 -69 -10 -27 -4 -53 -9 -58 -12 -4 -3 -18 -7 -29 -9 -12 -3 -47 -12 -78 -21
-31 -10 -59 -17 -63 -16 -5 1 -8 -2 -8 -8 0 -5 -6 -10 -14 -10 -22 0 -164 -77
-231 -125 -88 -64 -178 -154 -221 -221 -10 -16 -21 -31 -24 -34 -23 -22 -98
-181 -124 -265 -16 -52 -44 -179 -44 -205 0 -8 -3 -40 -7 -70 -3 -30 -6 -156
-7 -280 0 -354 30 -521 130 -725 103 -209 301 -388 517 -465 33 -12 69 -25 80
-30 19 -8 119 -33 140 -35 6 0 28 -4 50 -8 22 -4 58 -10 80 -13 55 -8 428 -12
440 -5 5 3 26 6 45 8 19 1 73 10 120 19 47 10 91 17 98 17 6 0 12 5 12 10 0 6
3 8 6 5 12 -13 237 84 275 118 8 8 19 14 23 14 28 0 236 203 236 229 0 5 3 11
8 13 11 5 56 78 85 139 48 102 91 235 101 314 3 22 8 56 11 75 22 148 22 526
-1 663 -28 175 -48 245 -102 357 -20 41 -40 80 -44 85 -5 6 -23 33 -40 60 -43
67 -168 192 -246 244 -169 114 -388 188 -617 208 -56 5 -254 10 -258 7z m248
-549 c57 -17 127 -58 168 -99 31 -31 87 -111 87 -124 0 -5 7 -23 15 -38 19
-38 49 -170 41 -189 -3 -8 -2 -16 2 -19 21 -13 19 -477 -3 -621 -25 -173 -115
-314 -238 -375 -34 -17 -73 -33 -87 -36 -53 -13 -253 -11 -294 3 -63 20 -136
55 -136 65 0 4 -6 8 -13 8 -45 0 -150 185 -173 303 -18 97 -27 542 -12 657 23
178 86 317 178 390 53 42 135 78 194 84 27 3 51 8 53 10 9 9 170 -5 218 -19z"/>
<path d="M8980 17758 c-47 -28 -59 -64 -61 -181 0 -58 2 -110 5 -116 4 -5 2
-12 -3 -15 -4 -3 -5 -24 -1 -46 4 -21 5 -42 2 -44 -2 -3 -3 -51 -3 -108 1 -57
2 -110 2 -118 0 -8 -1 -41 -1 -74 -1 -32 1 -61 4 -64 3 -3 1 -10 -4 -17 -5 -6
-6 -24 -2 -41 4 -16 5 -47 2 -69 -3 -22 -2 -59 1 -82 3 -23 2 -46 -3 -51 -4
-4 -4 -21 0 -37 4 -17 5 -48 2 -70 -3 -22 -2 -59 1 -82 3 -23 2 -46 -3 -51 -4
-4 -4 -21 0 -37 4 -17 5 -48 2 -70 -3 -22 -2 -59 1 -82 3 -23 2 -46 -3 -51 -4
-4 -4 -21 0 -37 4 -17 5 -48 2 -70 -3 -22 -2 -59 1 -82 3 -23 2 -46 -3 -51 -4
-4 -4 -21 0 -37 4 -17 5 -48 2 -70 -3 -22 -2 -59 1 -83 3 -23 2 -45 -3 -48 -5
-3 -6 -15 -2 -27 4 -12 6 -42 5 -67 -2 -25 -2 -52 -2 -60 0 -8 0 -31 0 -50 -2
-75 5 -190 13 -225 7 -27 51 -58 87 -59 17 -1 31 -3 31 -6 0 -6 114 -5 126 2
5 2 20 3 34 1 43 -6 281 -4 291 2 5 4 9 2 9 -3 0 -6 14 -7 37 -1 21 4 39 6 41
4 7 -7 52 43 62 69 7 19 10 251 11 695 0 366 1 680 3 696 21 184 126 312 296
358 67 18 33 16 351 19 359 4 337 -18 338 329 0 334 6 328 -284 323 -99 -1
-191 -5 -205 -8 -14 -4 -38 -9 -55 -12 -41 -7 -169 -47 -175 -55 -3 -3 -15 -9
-27 -13 -42 -13 -148 -89 -211 -151 -34 -35 -64 -60 -65 -56 -2 3 -3 53 -2
110 l1 104 -38 40 -38 41 -271 1 c-241 1 -274 -1 -299 -17z"/>
<path d="M19449 17762 c-66 -32 -62 42 -63 -1217 -1 -627 1 -1152 2 -1167 2
-14 16 -40 31 -58 22 -27 34 -32 81 -36 50 -5 197 -6 217 -3 4 1 13 0 18 -1
13 -2 140 0 180 3 17 1 42 -1 56 -4 35 -9 99 27 118 66 12 24 14 212 13 1179
-1 633 -3 1159 -5 1169 -5 28 -56 77 -80 78 -12 1 -138 2 -280 3 -208 2 -263
-1 -288 -12z"/>
<path d="M29796 17756 c-53 -30 -59 -77 -24 -184 12 -37 23 -69 23 -72 1 -3 8
-25 15 -50 7 -25 14 -47 15 -50 1 -3 10 -32 20 -65 11 -33 19 -62 20 -65 2
-12 48 -159 61 -196 8 -23 16 -50 19 -60 2 -11 13 -46 23 -79 25 -73 85 -266
88 -280 2 -10 56 -186 114 -370 17 -55 33 -107 35 -115 2 -8 10 -34 19 -58 8
-23 15 -44 16 -47 0 -3 1 -7 1 -10 1 -3 2 -8 3 -12 1 -5 13 -42 25 -83 13 -41
35 -111 48 -155 14 -44 31 -98 38 -120 8 -22 28 -87 45 -145 78 -262 89 -270
338 -258 28 2 52 1 52 -2 0 -4 158 -4 170 0 3 1 15 1 27 0 33 -2 91 28 113 60
15 21 212 586 225 645 1 5 5 17 8 25 8 18 157 461 161 475 3 14 37 117 43 135
4 8 7 18 8 23 2 4 4 9 5 12 1 3 3 8 5 13 1 4 4 14 8 22 3 8 13 39 22 68 9 28
18 52 20 52 4 0 244 -727 245 -742 1 -4 7 -23 16 -43 8 -19 14 -36 13 -37 0
-2 2 -10 5 -18 3 -8 37 -114 76 -235 39 -121 74 -227 77 -235 6 -15 11 -30 16
-52 9 -36 47 -106 71 -130 28 -27 73 -40 136 -38 19 0 94 -1 167 -2 72 -2 129
0 127 4 -3 4 5 4 18 -1 13 -4 35 -5 51 0 15 4 28 8 30 8 1 0 14 4 29 10 34 13
70 76 96 166 11 39 34 115 52 170 17 55 33 105 34 110 2 6 6 17 9 25 3 8 10
31 15 50 6 19 54 175 107 345 53 171 98 317 100 325 2 8 13 42 25 75 11 33 20
60 20 60 -1 0 1 7 4 15 8 25 77 251 93 305 8 28 21 66 28 85 7 19 13 37 13 40
-1 3 12 46 28 95 15 50 29 92 29 95 1 3 4 12 8 20 5 15 48 157 53 175 1 6 14
46 28 90 41 128 31 189 -39 222 -11 5 -128 9 -265 9 -238 -1 -246 -2 -277 -24
-32 -23 -60 -81 -88 -187 -7 -27 -32 -113 -55 -190 -23 -77 -43 -147 -45 -155
-2 -8 -15 -53 -30 -100 -14 -47 -27 -92 -29 -100 -2 -8 -12 -42 -22 -75 -10
-33 -19 -64 -20 -70 -2 -5 -24 -80 -49 -165 -26 -85 -66 -222 -90 -305 -53
-183 -61 -205 -68 -185 -8 20 -68 212 -72 225 -1 6 -5 17 -8 25 -16 43 -97
309 -97 319 0 6 -4 19 -10 29 -8 14 -77 225 -84 257 -2 8 -24 81 -41 135 -1 3
-4 12 -8 20 -3 8 -26 83 -52 165 -46 150 -56 182 -71 220 -4 11 -9 31 -11 43
-2 13 -13 33 -23 45 -11 11 -20 24 -20 27 0 3 -17 15 -37 26 -34 19 -55 21
-220 19 -166 -1 -185 -3 -210 -21 -31 -23 -63 -64 -67 -85 -2 -8 -6 -21 -9
-29 -3 -8 -21 -64 -40 -125 -58 -184 -122 -389 -197 -625 -40 -124 -73 -232
-75 -240 -2 -8 -15 -49 -30 -90 -14 -41 -25 -76 -24 -78 0 -2 -3 -15 -9 -30
-6 -15 -25 -75 -43 -134 -18 -59 -36 -104 -40 -100 -6 5 -30 84 -53 167 -1 6
-11 37 -21 70 -10 33 -20 66 -21 72 -1 7 -12 43 -23 80 -12 38 -26 86 -32 108
-6 22 -14 47 -17 55 -3 8 -6 17 -6 20 -8 34 -30 109 -37 125 -5 11 -13 40 -19
65 -12 50 -14 59 -23 80 -6 14 -50 165 -97 330 -10 36 -30 103 -44 150 -15 47
-29 96 -32 110 -8 37 -41 86 -72 106 -24 16 -54 18 -275 19 -228 1 -250 -1
-281 -19z"/>
<path d="M754 16881 c-2 -3 -25 -4 -49 -2 l-45 2 1 -795 c0 -654 3 -797 14
-806 9 -8 15 -8 20 0 3 6 11 8 16 4 10 -6 103 -7 164 -1 17 1 42 -1 58 -5 16
-4 27 -3 27 3 0 6 5 7 11 3 11 -7 54 -7 167 -2 28 2 52 1 52 -2 0 -6 116 -2
143 4 9 2 17 1 17 -2 0 -6 98 -5 170 1 14 1 37 -1 53 -5 16 -4 27 -3 27 3 0 6
5 7 11 3 11 -7 54 -7 167 -2 28 2 52 1 52 -2 0 -6 116 -2 143 4 9 2 17 1 17
-2 0 -6 98 -5 170 1 14 1 37 -1 51 -4 15 -4 32 -4 38 0 9 6 12 206 12 801 0
436 -2 794 -4 796 -7 8 -237 8 -237 1 0 -5 -5 -5 -10 -2 -6 3 -58 6 -118 5
-59 -1 -111 -2 -117 -2 -5 0 -44 1 -85 1 -41 0 -84 0 -95 0 -79 0 -152 0 -165
0 -8 0 -44 0 -80 0 -36 0 -81 0 -100 1 -19 1 -46 2 -60 2 -90 -2 -221 -1 -318
1 -63 1 -116 0 -118 -2z"/>
<path d="M2923 16882 l-22 -3 0 -794 c0 -650 3 -796 14 -805 9 -8 15 -8 20 0
3 6 11 8 16 4 10 -6 103 -7 164 -1 17 1 42 -1 58 -5 16 -4 27 -3 27 3 0 6 5 7
11 3 11 -7 54 -7 167 -2 28 2 52 1 52 -2 0 -5 107 -3 170 3 14 1 37 -1 53 -5
16 -4 27 -3 27 3 0 6 5 7 11 3 11 -6 75 -7 144 -1 17 1 40 -1 52 -5 12 -4 25
-3 28 2 3 5 16 6 28 1 12 -4 36 -4 52 -1 17 3 40 3 52 -1 12 -5 25 -4 28 1 3
5 16 6 28 1 12 -4 36 -4 52 -1 17 3 40 3 52 -1 12 -5 25 -4 28 1 3 5 16 6 28
1 12 -4 36 -4 52 -1 17 3 40 3 52 -1 12 -5 25 -4 28 1 3 5 15 6 26 1 12 -4 34
-5 50 -3 27 4 29 7 29 51 2 295 0 1544 -3 1547 -7 8 -237 8 -237 1 0 -5 -4 -6
-9 -3 -7 4 -153 7 -231 5 -8 0 -69 0 -135 0 -66 1 -149 1 -185 2 -36 0 -82 1
-103 2 -21 1 -41 -1 -44 -5 -2 -5 -8 -6 -12 -4 -8 5 -41 7 -156 7 -38 0 -87 1
-108 2 -21 1 -40 0 -42 -4 -3 -3 -24 -3 -47 0 -24 4 -56 4 -72 1 -16 -3 -61
-3 -100 0 -39 3 -81 4 -93 2z"/>
</g>
</svg>
